<?xml version="1.0" encoding="UTF-8"?>
<svg id="Layer_2" data-name="Layer 2" xmlns="http://www.w3.org/2000/svg" viewBox="0 0 400 83.9">
  <defs>
    <style>
      .cls-1 {
        fill: #f4f1ea;
      }
    </style>
  </defs>
  <g id="Layer_1-2" data-name="Layer 1">
    <g>
      <g>
        <polygon class="cls-1" points="22.7 68.1 68.1 68.1 60.53 60.53 30.26 60.53 22.7 68.1"/>
        <polygon class="cls-1" points="15.2 75.67 7.64 83.23 82.72 83.23 75.15 75.67 15.2 75.67"/>
        <rect class="cls-1" x="41.61" width="7.57" height="30.26"/>
        <rect class="cls-1" y="41.61" width="30.26" height="7.57"/>
        <rect class="cls-1" x="60.53" y="41.61" width="30.26" height="7.57"/>
        <rect class="cls-1" x="20.21" y="8.86" width="7.57" height="30.26" transform="translate(-9.94 24) rotate(-45)"/>
        <rect class="cls-1" x="51.67" y="20.21" width="30.26" height="7.57" transform="translate(2.6 54.26) rotate(-45)"/>
      </g>
      <g>
        <path class="cls-1" d="M150.58,17.72c-2.58-1.32-5.87-1.97-9.87-1.97h-16.82v51.19h6.14v-21.21h10.68c4.05,0,7.36-.67,9.94-2.01,2.58-1.34,4.48-3.14,5.7-5.41,1.22-2.27,1.83-4.79,1.83-7.57s-.62-5.37-1.86-7.64c-1.24-2.27-3.16-4.06-5.74-5.37ZM149.3,37.87c-1.73,1.78-4.64,2.67-8.74,2.67h-10.53v-19.67h10.53c4.1,0,7.01.87,8.74,2.6,1.73,1.73,2.6,4.16,2.6,7.28s-.87,5.35-2.6,7.13Z"/>
        <path class="cls-1" d="M187.03,31.29c-2.27-1.24-5.08-1.86-8.45-1.86-2.54,0-4.95.48-7.24,1.43-2.29.95-4.18,2.33-5.67,4.13-1.49,1.8-2.38,4-2.67,6.58h6.29c.39-2.24,1.45-3.96,3.18-5.16,1.73-1.19,3.77-1.79,6.11-1.79,1.95,0,3.61.39,4.97,1.17,1.36.78,2.4,1.93,3.11,3.44.71,1.51,1.06,3.41,1.06,5.7h-9.8c-3.17,0-5.94.45-8.3,1.35-2.37.9-4.19,2.21-5.48,3.91-1.29,1.71-1.94,3.8-1.94,6.29,0,2.05.49,3.94,1.46,5.67.97,1.73,2.45,3.11,4.42,4.13,1.97,1.02,4.47,1.54,7.5,1.54,1.66,0,3.14-.2,4.46-.59,1.32-.39,2.47-.91,3.47-1.57,1-.66,1.88-1.44,2.63-2.34.76-.9,1.38-1.86,1.86-2.89l.37,6.51h5.48v-22.6c0-3.02-.57-5.64-1.72-7.86-1.15-2.22-2.85-3.95-5.12-5.19ZM187.72,49.82c0,1.61-.24,3.18-.73,4.72-.49,1.54-1.23,2.91-2.23,4.13-1,1.22-2.18,2.18-3.55,2.89-1.37.71-2.93,1.06-4.68,1.06s-3.14-.26-4.31-.77c-1.17-.51-2.06-1.25-2.67-2.23-.61-.97-.91-2.12-.91-3.44s.32-2.39.95-3.36c.63-.97,1.68-1.74,3.14-2.3,1.46-.56,3.36-.84,5.7-.84h9.29v.15Z"/>
        <path class="cls-1" d="M211.27,21.52h-5.34l-.8,8.77h-6.36v5.19h6.36v20.33c0,2.78.43,4.98,1.28,6.62.85,1.63,2.08,2.79,3.69,3.47,1.61.68,3.51,1.02,5.7,1.02h5.63v-5.26h-3.88c-2.34,0-3.97-.4-4.9-1.21-.93-.8-1.39-2.35-1.39-4.64v-20.33h10.68v-5.19h-10.68v-8.77Z"/>
        <path class="cls-1" d="M254.34,31.14c-2.1-1.14-4.53-1.72-7.31-1.72s-5.13.63-7.35,1.9c-2.22,1.27-3.94,3-5.16,5.19V14.28h-6.14v52.65h6.14v-19.23c0-2.78.49-5.13,1.46-7.06.97-1.93,2.31-3.4,4.02-4.42,1.71-1.02,3.61-1.54,5.7-1.54,2.97,0,5.24.95,6.8,2.85,1.56,1.9,2.34,4.7,2.34,8.41v20.99h6.07v-21.64c0-3.61-.57-6.58-1.72-8.92-1.15-2.34-2.77-4.08-4.86-5.23Z"/>
        <rect class="cls-1" x="268.89" y="14.28" width="6.14" height="52.65"/>
        <path class="cls-1" d="M287.46,14.06c-1.22,0-2.23.38-3.03,1.13-.8.76-1.21,1.74-1.21,2.96s.4,2.23,1.21,3.03c.8.8,1.82,1.21,3.03,1.21s2.17-.4,3-1.21c.83-.8,1.24-1.82,1.24-3.03s-.41-2.21-1.24-2.96c-.83-.76-1.83-1.13-3-1.13Z"/>
        <rect class="cls-1" x="284.39" y="30.3" width="6.14" height="36.63"/>
        <path class="cls-1" d="M314.23,29.42c-3.07,0-5.68.6-7.82,1.79-2.15,1.2-3.79,2.77-4.94,4.72-1.15,1.95-1.72,4.12-1.72,6.51s.56,4.63,1.68,6.58c.68,1.19,1.56,2.23,2.64,3.13l-6.29,6.23v1.68c.68.63,1.45,1.24,2.3,1.83.7.48,1.55.92,2.55,1.31-.82.55-1.53,1.14-2.11,1.76-1.15,1.22-1.95,2.46-2.41,3.73-.46,1.27-.69,2.44-.69,3.51,0,2.58.72,4.75,2.16,6.51,1.44,1.76,3.42,3.06,5.96,3.91,2.53.85,5.46,1.28,8.78,1.28,3.7,0,6.75-.61,9.14-1.83,2.39-1.22,4.16-2.78,5.3-4.68,1.14-1.9,1.72-3.88,1.72-5.92s-.45-3.92-1.35-5.48c-.9-1.56-2.37-2.8-4.39-3.73-2.02-.93-4.69-1.51-8.01-1.75-2.44-.19-4.39-.39-5.85-.59-1.46-.19-2.62-.41-3.47-.66-.85-.24-1.52-.54-2.01-.88-.16-.11-.33-.24-.49-.35l3.72-3.39c1.67.54,3.54.81,5.62.81,3.07,0,5.68-.59,7.82-1.75,2.14-1.17,3.78-2.73,4.9-4.68,1.12-1.95,1.68-4.14,1.68-6.58s-.56-4.56-1.68-6.51c-.14-.25-.32-.48-.48-.72l6.92-.31v-4.61h-13.42c-1.69-.58-3.6-.88-5.74-.88ZM315.32,65.47c3.51.2,5.9.87,7.17,2.01,1.27,1.14,1.9,2.55,1.9,4.2,0,1.41-.41,2.66-1.24,3.73-.83,1.07-2,1.91-3.51,2.52-1.51.61-3.29.91-5.34.91s-3.96-.27-5.59-.8c-1.63-.54-2.93-1.34-3.88-2.41-.95-1.07-1.43-2.41-1.43-4.02,0-1.17.4-2.44,1.21-3.8.67-1.13,1.94-2.17,3.81-3.1,1.88.32,4.17.57,6.91.76ZM320.41,48.36c-1.54,1.37-3.6,2.05-6.18,2.05s-4.73-.68-6.29-2.05c-1.56-1.36-2.34-3.34-2.34-5.92s.79-4.48,2.38-5.85c1.58-1.36,3.67-2.05,6.25-2.05s4.64.68,6.18,2.05c1.54,1.37,2.3,3.32,2.3,5.85s-.77,4.56-2.3,5.92Z"/>
        <path class="cls-1" d="M364.83,31.14c-2.1-1.14-4.53-1.72-7.31-1.72s-5.13.63-7.35,1.9c-2.22,1.27-3.94,3-5.15,5.19V14.28h-6.14v52.65h6.14v-19.23c0-2.78.49-5.13,1.46-7.06.97-1.93,2.32-3.4,4.02-4.42,1.71-1.02,3.61-1.54,5.7-1.54,2.97,0,5.24.95,6.8,2.85,1.56,1.9,2.34,4.7,2.34,8.41v20.99h6.07v-21.64c0-3.61-.57-6.58-1.72-8.92-1.15-2.34-2.77-4.08-4.86-5.23Z"/>
        <path class="cls-1" d="M400,35.49v-5.19h-10.68v-8.77h-5.34l-.8,8.77h-6.36v5.19h6.36v20.33c0,2.78.43,4.98,1.28,6.62.85,1.63,2.08,2.79,3.69,3.47,1.61.68,3.51,1.02,5.7,1.02h5.63v-5.26h-3.88c-2.34,0-3.97-.4-4.9-1.21-.93-.8-1.39-2.35-1.39-4.64v-20.33h10.68Z"/>
      </g>
    </g>
  </g>
</svg>